<svg width="1234" height="1315" viewBox="0 0 1234 1315" fill="none" xmlns="http://www.w3.org/2000/svg">
<path d="M207.857 1217.29C442.544 1346.63 822.957 1346.63 1057.67 1217.29C1292.39 1087.94 1292.33 878.522 1057.67 749.293C823.015 620.065 442.572 619.95 207.857 749.293C-26.8586 878.637 -26.8011 1088.06 207.857 1217.29Z" fill="#F5F5F5"/>
<path d="M159.971 1126.14L177.562 1136.29C180.259 1137.66 183.244 1138.38 186.271 1138.38C189.299 1138.38 192.283 1137.66 194.98 1136.29L714.625 836.27C719.454 833.396 719.454 828.998 714.625 826.21L697.034 816.035C694.333 814.675 691.35 813.967 688.325 813.967C685.301 813.967 682.318 814.675 679.616 816.035L159.971 1116.08C155.142 1118.84 155.142 1123.36 159.971 1126.14Z" fill="#E0E0E0"/>
<path d="M923.185 1040.86C974.031 1067.42 1056.47 1067.45 1107.31 1040.86C1158.16 1014.28 1158.13 971.247 1107.31 944.688C1056.49 918.13 974.031 918.13 923.185 944.688C872.338 971.247 872.338 1014.3 923.185 1040.86Z" fill="#E0E0E0"/>
<path d="M860.755 987.257C876.046 995.247 900.851 995.247 916.142 987.257C931.434 979.266 931.434 966.332 916.142 958.341C900.851 950.351 876.046 950.351 860.755 958.341C845.463 966.332 845.377 979.266 860.755 987.257Z" fill="#E0E0E0"/>
<path d="M181.413 990.965C182.103 965.441 175.004 922.643 149.796 879.93C122.893 834.2 87.3662 803.589 57.531 812.902C29.7077 821.525 35.83 859.293 77.6511 900.395C106.998 929.139 136.689 965.815 150.256 1007.61L173.768 1061.47L181.413 990.965Z" fill="#2D82FF"/>
<path d="M181.413 990.965C182.103 965.441 175.004 922.643 149.796 879.93C122.893 834.2 87.3662 803.589 57.531 812.902C29.7077 821.525 35.83 859.293 77.6511 900.395C106.998 929.139 136.689 965.815 150.256 1007.61L173.768 1061.47L181.413 990.965Z" fill="#37474F"/>
<path d="M176.843 1009.99C176.476 1009.95 176.131 1009.79 175.854 1009.54C175.577 1009.3 175.381 1008.97 175.291 1008.61C157.384 935.721 112.056 859.149 69.7179 830.205C69.3235 829.937 69.0509 829.523 68.9594 829.055C68.8679 828.587 68.9649 828.102 69.2293 827.704C69.503 827.308 69.9212 827.035 70.3942 826.943C70.8671 826.852 71.357 826.95 71.7587 827.216C114.701 856.476 160.718 934.082 178.798 1007.84C178.911 1008.3 178.835 1008.79 178.587 1009.2C178.339 1009.61 177.94 1009.91 177.475 1010.02C177.264 1010.04 177.052 1010.03 176.843 1009.99V1009.99Z" fill="white"/>
<path d="M181.758 1073.63C167.662 1086.12 150.536 1094.69 132.09 1098.49C100.301 1105.48 85.2106 1090.96 85.2106 1090.96C85.2106 1090.96 96.0467 1060.09 113.781 1050.58C113.781 1050.58 83.2561 1058.71 59.4281 1076.73C59.4281 1076.73 39.8254 1078.2 30.254 1048.77C30.254 1048.77 40.7739 1030.06 79.1171 1018.01C79.1171 1018.01 55.0592 1013.44 21.4011 1024.19C18.9005 1025.37 5.6787 987.343 1.28102 969.58C-3.11666 951.817 4.15532 951.673 17.7795 947.132C31.4037 942.59 78.7147 937.417 87.8837 944.545C97.0527 951.673 103.031 977.599 103.031 977.599C103.031 977.599 110.504 962.279 107.716 949.201C117.257 945.845 127.594 945.474 137.35 948.138C153.303 952.65 152.785 960.325 153.447 971.707C154.192 983.157 153.302 994.655 150.802 1005.85C150.802 1005.85 161.035 995.88 159.425 961.417C159.425 961.417 181.615 978.232 191.042 993.264C200.47 1008.3 200.758 1049.2 181.758 1073.63Z" fill="#455A64"/>
<path d="M181.873 1075.41C181.532 1075.44 181.189 1075.37 180.887 1075.21C180.586 1075.04 180.339 1074.79 180.177 1074.49C151.061 1022.21 51.0063 965.412 16.0836 960.756C15.8476 960.724 15.6201 960.646 15.4143 960.526C15.2085 960.406 15.0283 960.247 14.8842 960.057C14.74 959.868 14.6346 959.652 14.5741 959.421C14.5136 959.191 14.4991 958.951 14.5315 958.715C14.6028 958.242 14.8558 957.815 15.2369 957.525C15.6179 957.235 16.097 957.105 16.5722 957.163C52.0698 961.848 153.763 1019.62 183.339 1072.74C183.455 1072.95 183.528 1073.17 183.555 1073.41C183.581 1073.65 183.56 1073.88 183.493 1074.11C183.427 1074.34 183.315 1074.55 183.165 1074.73C183.015 1074.92 182.83 1075.07 182.621 1075.18C182.398 1075.33 182.139 1075.41 181.873 1075.41V1075.41Z" fill="white"/>
<path d="M1066.7 912.439C1066.7 912.439 1070.69 877.401 1088.11 850.239C1105.53 823.077 1129.47 806.09 1151.81 804.25C1174.14 802.411 1192.05 823.019 1168.28 837.132C1144.51 851.245 1101.91 865.645 1082.39 918.417L1066.7 912.439Z" fill="#2D82FF"/>
<path opacity="0.1" d="M1066.7 912.439C1066.7 912.439 1070.69 877.401 1088.11 850.239C1105.53 823.077 1129.47 806.09 1151.81 804.25C1174.14 802.411 1192.05 823.019 1168.28 837.132C1144.51 851.245 1101.91 865.645 1082.39 918.417L1066.7 912.439Z" fill="black"/>
<path d="M1073.28 903.327H1073.05C1072.76 903.206 1072.53 902.976 1072.4 902.686C1072.28 902.396 1072.27 902.069 1072.39 901.775C1095.96 843.743 1140.83 819.484 1161.26 814.799C1161.42 814.761 1161.57 814.753 1161.73 814.778C1161.89 814.802 1162.04 814.857 1162.17 814.941C1162.3 815.024 1162.42 815.133 1162.51 815.261C1162.6 815.39 1162.67 815.536 1162.7 815.69C1162.77 816.002 1162.71 816.329 1162.54 816.599C1162.36 816.868 1162.09 817.058 1161.78 817.127C1141.66 821.726 1097.8 845.525 1074.6 902.666C1074.49 902.911 1074.3 903.11 1074.06 903.23C1073.82 903.35 1073.54 903.385 1073.28 903.327V903.327Z" fill="white"/>
<path d="M1192.59 904.017C1190.55 908.587 1185.58 910.944 1180.95 912.813C1176.32 914.681 1171.29 916.693 1168.79 921.004C1163.76 929.627 1172.04 941.958 1166.61 950.408C1165.35 952.106 1163.76 953.53 1161.93 954.592C1160.1 955.655 1158.07 956.334 1155.97 956.588C1152.51 957.092 1149.01 957.409 1145.51 957.537C1143.85 957.506 1142.19 957.372 1140.54 957.134C1135.71 956.059 1130.66 956.605 1126.17 958.686C1119.24 962.567 1117.11 971.305 1112.92 978.03C1110.32 982.008 1106.89 985.376 1102.87 987.902C1098.84 990.427 1094.32 992.051 1089.61 992.661C1086.5 993.063 1080.7 993.638 1077.53 991.856L1076.87 991.453C1076.45 990.986 1076.04 990.496 1075.67 989.988C1075.65 989.921 1075.65 989.853 1075.67 989.786C1074.43 985.274 1076.44 980.589 1076.53 975.904C1076.54 975.626 1076.54 975.348 1076.53 975.07C1076.36 969.638 1076.18 964.263 1076.07 958.859C1075.81 948.914 1075.69 938.94 1075.78 928.966C1075.78 922.499 1075.06 915.428 1077.79 909.335C1080.84 902.638 1088.37 902.494 1091.22 895.912C1092.34 893.296 1092.97 890.479 1094.09 887.835C1095.79 883.944 1098.53 880.598 1102.01 878.168C1105.49 875.738 1109.57 874.318 1113.81 874.067C1126.97 873.377 1138.79 884.041 1151.92 883.064C1155.31 882.608 1158.67 881.965 1161.98 881.138C1172.64 879.155 1184.98 882.201 1190.95 891.198C1192.25 893.042 1193.07 895.172 1193.36 897.405C1193.64 899.639 1193.38 901.908 1192.59 904.017V904.017Z" fill="#2D82FF"/>
<path d="M1074.37 969.005C1074.09 968.925 1073.85 968.734 1073.7 968.476C1073.55 968.217 1073.52 967.911 1073.6 967.626C1091.76 899.418 1163.62 889.559 1180.43 890.767C1180.73 890.802 1180.99 890.946 1181.19 891.169C1181.38 891.393 1181.48 891.68 1181.47 891.974C1181.46 892.121 1181.42 892.265 1181.35 892.397C1181.29 892.529 1181.19 892.646 1181.08 892.742C1180.97 892.838 1180.84 892.911 1180.7 892.957C1180.56 893.003 1180.41 893.02 1180.26 893.009C1163.82 891.83 1093.54 901.488 1075.75 968.2C1075.72 968.346 1075.66 968.484 1075.57 968.605C1075.48 968.726 1075.37 968.827 1075.24 968.903C1075.11 968.978 1074.96 969.026 1074.82 969.044C1074.67 969.061 1074.52 969.048 1074.37 969.005V969.005Z" fill="white"/>
<path d="M1154.22 934.456C1153.99 934.422 1153.78 934.31 1153.62 934.14C1146.98 928.397 1139.17 924.186 1130.72 921.806C1122.28 919.427 1113.41 918.937 1104.75 920.372C1104.46 920.413 1104.16 920.336 1103.93 920.159C1103.69 919.981 1103.53 919.717 1103.49 919.423C1103.45 919.13 1103.53 918.832 1103.7 918.595C1103.88 918.358 1104.14 918.201 1104.44 918.159C1113.44 916.663 1122.67 917.176 1131.45 919.66C1140.24 922.145 1148.37 926.539 1155.26 932.53C1155.36 932.632 1155.45 932.755 1155.51 932.891C1155.56 933.027 1155.59 933.173 1155.59 933.321C1155.59 933.469 1155.56 933.615 1155.51 933.751C1155.45 933.886 1155.36 934.009 1155.26 934.111C1155.13 934.257 1154.97 934.366 1154.79 934.426C1154.6 934.487 1154.41 934.497 1154.22 934.456V934.456Z" fill="white"/>
<path d="M189.433 1126.75L178.539 1120.45C176.724 1119.27 175.213 1117.68 174.129 1115.81C173.045 1113.94 172.419 1111.83 172.302 1109.67V301.679C172.419 299.518 173.045 297.415 174.129 295.542C175.213 293.669 176.724 292.078 178.539 290.9L679.788 1.48657C681.717 0.509271 683.849 0 686.011 0C688.173 0 690.305 0.509271 692.234 1.48657L703.156 7.78129C704.963 8.96632 706.466 10.5591 707.544 12.4312C708.623 14.3034 709.246 16.4026 709.365 18.5599V826.555C709.246 828.712 708.623 830.811 707.544 832.683C706.466 834.556 704.963 836.148 703.156 837.333L201.878 1126.75C199.95 1127.72 197.818 1128.23 195.655 1128.23C193.493 1128.23 191.361 1127.72 189.433 1126.75V1126.75Z" fill="#2D82FF"/>
<path opacity="0.4" d="M709.308 17.5539C708.877 14.3347 706.261 13.1562 703.157 14.967L201.879 304.38C200.041 305.522 198.527 307.115 197.481 309.008L174.113 295.528C175.175 293.637 176.698 292.045 178.539 290.9L679.789 1.48657C681.717 0.509271 683.849 0 686.012 0C688.174 0 690.306 0.509271 692.234 1.48657L703.157 7.78129C704.821 8.87622 706.231 10.315 707.292 12.0008C708.353 13.6865 709.04 15.5801 709.308 17.5539V17.5539Z" fill="white"/>
<path opacity="0.15" d="M200.786 1127.26C200.672 1127.34 200.545 1127.39 200.413 1127.41L199.78 1127.64H199.521L198.372 1127.93H198.228C195.747 1128.4 193.185 1128.19 190.812 1127.32C190.337 1127.15 189.876 1126.93 189.433 1126.69L178.539 1120.48C176.734 1119.29 175.232 1117.7 174.154 1115.83C173.076 1113.96 172.451 1111.86 172.331 1109.7V301.679C172.405 299.508 173.028 297.392 174.141 295.528L197.509 309.008C196.419 310.867 195.825 312.975 195.785 315.13V1123.18C195.722 1124.35 196.056 1125.51 196.733 1126.46C197.13 1126.94 197.654 1127.29 198.245 1127.48C198.836 1127.67 199.468 1127.68 200.068 1127.52L200.786 1127.26Z" fill="black"/>
<path d="M552.802 150.26L551.882 149.714L541.534 143.764C537.775 141.678 533.696 140.231 529.462 139.482C527.68 139.079 526.071 138.619 524.662 138.16C523.099 137.638 521.573 137.014 520.092 136.291L520.868 135.343L509.084 128.559C508.121 128.006 507.086 127.59 506.008 127.323C501.61 126.26 495.028 128.818 488.446 128.071C486.061 127.825 483.759 127.063 481.699 125.837C479.639 124.61 477.871 122.95 476.518 120.971C472.522 115.596 470.108 106.169 466.573 98.3792L469.734 93.8091L468.757 93.263L458.036 87.0545C456.224 85.9894 454.159 85.4333 452.057 85.4449C448.057 85.6619 444.183 86.9202 440.819 89.0952C415.151 103.927 414.289 139.137 405.034 162.275C395.779 185.413 382.701 192.685 375.572 202.515C368.444 212.345 367.955 219.761 352.175 241.606C336.396 263.45 335.763 268.682 335.763 272.792V305.214L347.433 311.94L557.516 190.616L552.802 150.26ZM360.224 275.206C357.493 276.758 355.251 274.66 355.251 270.435C355.22 268.418 355.653 266.421 356.515 264.597C357.377 262.773 358.646 261.172 360.224 259.915C362.954 258.334 365.167 260.49 365.167 264.715C365.197 266.731 364.761 268.726 363.893 270.545C363.026 272.365 361.75 273.96 360.166 275.206H360.224ZM452.46 184.235C445.562 188.23 439.525 185.959 436.278 179.291C428.143 180.872 422.078 172.996 422.078 159.487C422.078 143.563 430.471 125.829 440.819 119.85C442.142 118.882 443.673 118.236 445.29 117.963C446.907 117.69 448.566 117.798 450.134 118.278C451.701 118.758 453.136 119.596 454.323 120.728C455.51 121.859 456.417 123.251 456.972 124.794C465.135 123.184 471.172 131.031 471.172 144.598C471.172 160.522 462.807 178.256 452.46 184.235ZM522.219 181.619C519.489 183.2 517.275 181.073 517.275 176.876C517.237 174.865 517.663 172.872 518.521 171.053C519.378 169.233 520.644 167.636 522.219 166.385C525.093 164.804 527.192 166.931 527.192 171.157C527.229 173.166 526.799 175.157 525.936 176.973C525.073 178.788 523.801 180.379 522.219 181.619V181.619Z" fill="#455A64"/>
<path opacity="0.5" d="M359.102 280.984L336.625 267.963C336.106 269.588 335.854 271.287 335.878 272.993V305.415L347.548 312.141L359.217 305.386L359.102 280.984Z" fill="#37474F"/>
<path opacity="0.5" d="M382.442 240.542L394.111 213.581L375.572 202.688C370.111 210.218 368.53 216.283 361.201 228.269L382.442 240.542Z" fill="#37474F"/>
<path opacity="0.5" d="M429.149 186.62L430.673 178.773C425.499 176.589 422.05 169.633 422.05 159.487C422.05 145.949 428.115 131.146 436.421 123.328L420.124 113.929C413.226 129.652 410.668 148.191 405.034 162.275C403.92 165.068 402.663 167.802 401.269 170.467L429.149 186.62Z" fill="#37474F"/>
<path d="M552.802 150.26L551.882 149.714C548.448 148.105 544.827 146.928 541.103 146.208C534.986 145.093 529.296 142.307 524.662 138.16C523.496 137.078 522.225 136.115 520.868 135.285C519.885 134.712 518.818 134.295 517.707 134.049C510.636 132.354 497.759 140.057 488.504 128.071L488.216 127.697C481.749 119.074 479.392 99.5578 469.706 93.8379L468.729 93.2918C464.733 91.4235 459.531 91.7684 452.431 95.8499C426.764 110.681 425.901 145.891 416.646 169.03C407.391 192.168 394.313 199.44 387.185 209.27C380.056 219.1 379.596 226.516 363.788 248.36C347.979 270.205 347.404 275.436 347.404 279.547V312.256L557.487 190.932V158.423C557.64 156.746 557.272 155.063 556.434 153.602C555.595 152.141 554.327 150.974 552.802 150.26V150.26ZM371.721 281.932C368.847 283.513 366.777 281.386 366.777 277.161C366.741 275.146 367.168 273.15 368.025 271.326C368.882 269.502 370.147 267.899 371.721 266.641C374.595 265.06 376.665 267.216 376.665 271.441C376.718 273.446 376.307 275.435 375.464 277.255C374.622 279.075 373.37 280.676 371.807 281.932H371.721ZM452.374 184.206C445.475 188.201 439.439 185.931 436.191 179.262C434.366 175.151 433.491 170.68 433.633 166.184C433.633 150.26 442.026 132.526 452.374 126.547C453.773 125.715 455.296 125.114 456.886 124.765C465.049 123.156 471.085 131.003 471.085 144.569C471.172 160.522 462.808 178.256 452.46 184.235L452.374 184.206ZM533.803 188.316C530.928 189.897 528.83 187.77 528.83 183.574C528.789 181.559 529.216 179.562 530.079 177.742C530.942 175.921 532.217 174.326 533.803 173.082C536.677 171.502 538.747 173.629 538.747 177.854C538.797 179.858 538.385 181.847 537.543 183.667C536.701 185.486 535.45 187.087 533.889 188.345L533.803 188.316Z" fill="#37474F"/>
<path d="M471.171 144.598C471.171 160.522 462.807 178.256 452.46 184.235C445.561 188.23 439.525 185.959 436.277 179.291C437.881 178.956 439.416 178.354 440.819 177.509C451.166 171.53 459.53 153.796 459.53 137.872C459.673 133.376 458.798 128.905 456.972 124.794C465.135 123.184 471.171 131.175 471.171 144.598Z" fill="#263238"/>
<path d="M371.807 281.903C368.933 283.484 366.834 281.357 366.834 277.161C366.8 275.143 367.23 273.145 368.092 271.32C368.955 269.496 370.226 267.895 371.807 266.641C374.538 265.06 376.751 267.216 376.751 271.441C376.787 273.448 376.359 275.435 375.502 277.25C374.645 279.065 373.38 280.657 371.807 281.903Z" fill="#263238"/>
<path d="M533.86 188.345C530.986 189.926 528.916 187.799 528.916 183.602C528.878 181.587 529.304 179.59 530.161 177.766C531.019 175.941 532.284 174.339 533.86 173.082C536.735 171.501 538.833 173.657 538.833 177.882C538.87 179.892 538.44 181.883 537.577 183.699C536.714 185.514 535.442 187.104 533.86 188.345" fill="#263238"/>
<path d="M234.387 379.946L670.59 128.1C671.75 127.518 673.03 127.215 674.327 127.215C675.624 127.215 676.904 127.518 678.064 128.1L682.289 130.543C683.375 131.252 684.279 132.207 684.928 133.331C685.577 134.454 685.953 135.714 686.025 137.01V802.468C685.953 803.763 685.577 805.024 684.928 806.147C684.279 807.27 683.375 808.225 682.289 808.935L246.085 1060.78C244.925 1061.36 243.646 1061.67 242.348 1061.67C241.051 1061.67 239.771 1061.36 238.612 1060.78L234.387 1058.34C233.3 1057.63 232.396 1056.67 231.747 1055.55C231.098 1054.43 230.722 1053.17 230.65 1051.87V386.413C230.727 385.119 231.105 383.86 231.753 382.737C232.402 381.615 233.304 380.659 234.387 379.946V379.946Z" fill="#F5F5F5"/>
<path d="M685.882 135.889C685.422 134.366 683.985 133.877 682.289 134.854L246.085 386.7C244.965 387.408 244.053 388.4 243.441 389.575L231.771 382.849C232.375 381.668 233.289 380.675 234.415 379.975L670.619 128.128C671.77 127.533 673.046 127.223 674.342 127.223C675.637 127.223 676.913 127.533 678.064 128.128L682.289 130.543C683.215 131.149 684.01 131.934 684.627 132.852C685.244 133.77 685.671 134.803 685.882 135.889Z" fill="#FAFAFA"/>
<path d="M245.194 1061.18C244.748 1061.36 244.286 1061.48 243.814 1061.56H243.096C242.341 1061.64 241.579 1061.64 240.825 1061.56C240.353 1061.48 239.891 1061.36 239.445 1061.18L238.612 1060.78L234.415 1058.37C233.328 1057.66 232.422 1056.7 231.773 1055.58C231.124 1054.46 230.749 1053.2 230.679 1051.9V386.442C230.711 385.14 231.088 383.871 231.771 382.763L243.441 389.488C242.778 390.606 242.402 391.87 242.348 393.168V1058.63C242.348 1060.67 243.556 1061.67 245.194 1061.18Z" fill="#E0E0E0"/>
<path d="M587.753 222.377L576.256 215.651C574.427 214.764 572.411 214.332 570.379 214.392C568.347 214.452 566.36 215.002 564.586 215.996C551.02 221.974 545.156 224.619 538.143 227.493L533.084 229.534C530.353 230.626 524.863 229.706 526.559 220.135L544.581 171.588H544.322L532.825 164.977C532.243 164.633 531.598 164.408 530.928 164.316C530.507 164.283 530.084 164.283 529.664 164.316C522.277 164.143 520.178 116.545 520.121 115.079L519.603 114.792L508.279 108.181C506.317 107.069 504.094 106.503 501.84 106.542C498.099 106.64 494.434 107.625 491.148 109.417C473.413 118.729 455.507 146.323 451.138 171.099C448.263 186.735 432.656 210.793 423.573 219.646C414.49 228.499 413.858 235.915 413.858 235.915L406.787 275.982L404.516 288.802C402.849 298.373 393.019 307.628 393.019 307.628L356.458 335.25C333.464 354.278 327.083 373.479 322.685 397.249V397.422C322.685 398.255 322.685 398.83 323.087 399.06C323.149 399.095 323.218 399.114 323.289 399.114C323.359 399.114 323.429 399.095 323.49 399.06V399.06L328.175 396.387L579.906 251.206C581.104 250.385 581.93 249.125 582.206 247.699C582.206 247.699 582.206 247.699 582.206 247.699C583.643 239.076 587.954 222.779 587.954 222.779L587.753 222.377ZM514.976 148.823C512.274 164.057 501.294 181.044 490.372 186.764C482.841 190.702 477.351 188.259 475.512 181.332C474.159 181.864 472.693 182.046 471.25 181.86C469.808 181.674 468.436 181.127 467.262 180.268C463.756 177.394 495.833 122.466 498.449 123.673C499.711 124.325 500.808 125.257 501.655 126.398C502.502 127.538 503.077 128.858 503.335 130.255C512.274 127.525 517.39 135.142 514.976 148.823Z" fill="#455A64"/>
<path opacity="0.5" d="M359.102 361.895L340.764 351.289C330.101 365.287 325.847 380.032 322.685 397.134V397.307C322.685 398.14 322.685 398.715 323.087 398.945C323.149 398.98 323.218 398.999 323.289 398.999C323.359 398.999 323.429 398.98 323.49 398.945V398.945L337.861 387.448L359.102 361.895Z" fill="#37474F"/>
<path opacity="0.5" d="M403.31 293.027L429.178 307.945L440.848 240.542L417.537 227.09C415.683 229.758 414.437 232.799 413.887 236.001L406.816 276.069L404.546 288.888C404.258 290.302 403.844 291.687 403.31 293.027V293.027Z" fill="#37474F"/>
<path opacity="0.5" d="M463.382 138.993C457.471 148.936 453.328 159.828 451.138 171.185C449.299 179.277 446.216 187.034 441.998 194.18L464.187 206.999L475.196 181.533C473.881 182.002 472.473 182.145 471.091 181.95C469.709 181.754 468.396 181.227 467.263 180.412C465.452 178.975 473.011 163.741 481.232 149.427L463.382 138.993Z" fill="#37474F"/>
<path d="M587.926 222.463H587.753C585.943 221.614 583.958 221.205 581.96 221.27C579.962 221.335 578.007 221.872 576.256 222.837C559.614 230.166 554.584 232.58 544.639 236.489C541.994 237.553 536.677 236.691 538.057 227.694C538.043 227.493 538.043 227.291 538.057 227.091L540.327 214.271L546.622 179.348C546.622 179.348 548.059 173.858 544.409 171.789H544.15C543.25 171.37 542.269 171.154 541.276 171.157C539.154 170.904 537.116 170.176 535.314 169.027C533.512 167.877 531.994 166.335 530.871 164.517C528.903 161.597 527.542 158.311 526.871 154.854C526.199 151.398 526.23 147.841 526.962 144.397C529.606 129.422 526.703 118.931 520.063 115.021L519.546 114.705C515.263 112.435 509.515 112.808 502.789 116.344C485.054 125.656 467.148 153.25 462.779 178.026C459.904 193.662 444.297 217.72 435.214 226.573C426.131 235.426 425.499 242.842 425.499 242.842L418.428 282.909L416.157 295.729C414.49 305.3 404.66 314.555 404.66 314.555L368.243 341.89C353.644 353.51 343.108 369.461 338.149 387.448C338.149 387.448 324.438 398.083 323.576 398.945L328.261 396.272L580.711 251.148C580.711 251.148 583.585 249.568 584.247 249.165C584.908 248.763 595.054 239.163 595.054 239.163C594.565 230.885 592.151 224.992 587.926 222.463ZM514.976 148.823C512.274 164.057 501.294 181.044 490.372 186.764C482.841 190.702 477.351 188.259 475.512 181.332C474.694 177.436 474.694 173.414 475.512 169.518C478.214 154.284 489.222 137.297 500.144 131.606C501.156 131.063 502.214 130.611 503.306 130.255C512.274 127.525 517.39 135.142 514.976 148.823Z" fill="#37474F"/>
<path d="M514.976 148.823C512.274 164.057 501.294 181.044 490.372 186.764C482.841 190.702 477.351 188.259 475.512 181.332C476.611 180.982 477.678 180.54 478.702 180.009C489.624 174.261 500.633 157.302 503.306 142.069C504.136 138.175 504.136 134.149 503.306 130.255C512.274 127.525 517.39 135.142 514.976 148.823Z" fill="#263238"/>
<path d="M504.428 130.888C505.455 130.823 506.481 131.024 507.408 131.472C508.334 131.92 509.129 132.6 509.716 133.446C514.229 139.884 509.889 156.268 508.02 161.499C505.405 168.8 488.475 185.902 483.819 185.902C482.28 185.649 480.808 185.085 479.494 184.245C478.179 183.405 477.049 182.306 476.173 181.015C475.406 177.221 475.406 173.312 476.173 169.518C478.846 154.486 489.74 137.7 500.432 132.152C501.349 131.634 502.311 131.201 503.307 130.859H504.313L504.428 130.888ZM504.313 130.14H503.163C502.071 130.496 501.013 130.948 500.001 131.491C489.079 137.24 478.07 154.169 475.368 169.403C474.55 173.299 474.55 177.321 475.368 181.217C476.307 182.623 477.527 183.819 478.952 184.73C480.377 185.64 481.976 186.245 483.646 186.505V186.505C488.705 186.505 505.721 169.26 508.452 161.643C511.182 154.026 517.074 130.025 504.198 130.025L504.313 130.14Z" fill="#263238"/>
<path d="M323.49 398.974L580.625 251.148L584.189 249.165C584.821 248.791 594.996 239.134 594.996 239.134L338.034 387.448C338.034 387.448 322.455 399.491 323.49 398.974Z" fill="#263238"/>
<path d="M277.875 466.204L347.433 425.446V506.358L277.875 547.086V466.204Z" fill="#FAFAFA"/>
<path d="M280.749 467.842V542.2L344.559 504.834V430.476L280.749 467.842ZM277.875 549.961C277.372 549.957 276.879 549.828 276.438 549.587C275.999 549.334 275.635 548.969 275.383 548.53C275.13 548.091 274.999 547.593 275.001 547.086V466.204C274.996 465.7 275.123 465.204 275.37 464.765C275.618 464.326 275.976 463.96 276.409 463.703L345.967 422.974C346.404 422.722 346.9 422.589 347.404 422.589C347.909 422.589 348.404 422.722 348.841 422.974C349.276 423.225 349.637 423.585 349.889 424.019C350.141 424.452 350.276 424.944 350.279 425.446V506.358C350.276 506.859 350.141 507.351 349.889 507.785C349.637 508.219 349.276 508.579 348.841 508.829L279.283 549.558C278.857 549.812 278.371 549.95 277.875 549.961V549.961Z" fill="#455A64"/>
<path d="M382.442 408.085V413.834C382.442 417.024 384.684 418.318 387.414 416.708L634.317 274.2C635.767 273.254 636.975 271.981 637.843 270.484C638.712 268.986 639.217 267.306 639.318 265.577V259.685C639.318 256.523 637.076 255.23 634.317 256.811L387.414 399.376C385.955 400.33 384.743 401.617 383.879 403.132C383.014 404.646 382.522 406.343 382.442 408.085V408.085Z" fill="#E0E0E0"/>
<path d="M382.442 443.41V449.159C382.442 452.321 384.684 453.614 387.414 452.033L634.317 309.497C635.77 308.554 636.98 307.282 637.849 305.784C638.718 304.285 639.222 302.603 639.318 300.874V295.125C639.318 291.935 637.076 290.641 634.317 292.251L387.414 434.787C385.967 435.733 384.762 437.007 383.898 438.505C383.034 440.003 382.535 441.684 382.442 443.41V443.41Z" fill="#E0E0E0"/>
<path d="M382.442 478.534V484.283C382.442 487.445 384.684 488.738 387.414 487.157L634.317 344.621C635.772 343.68 636.983 342.408 637.852 340.909C638.722 339.411 639.224 337.728 639.318 335.998V330.249C639.318 327.087 637.076 325.794 634.317 327.375L387.414 469.911C385.971 470.862 384.77 472.137 383.907 473.634C383.044 475.131 382.542 476.809 382.442 478.534V478.534Z" fill="#E0E0E0"/>
<path d="M313.803 507.536L297.621 491.986L304.606 477.212L313.803 486.094L352.118 404.981L359.102 411.678L313.803 507.536Z" fill="#2D82FF"/>
<path d="M277.875 614.489L347.433 573.76V654.643L277.875 695.372V614.489Z" fill="#FAFAFA"/>
<path d="M280.749 616.127V690.37L344.559 653.004V578.761L280.749 616.127ZM277.875 698.246C277.371 698.249 276.876 698.121 276.438 697.872C275.999 697.619 275.635 697.254 275.383 696.815C275.13 696.376 274.999 695.878 275.001 695.372V614.489C275.001 613.99 275.131 613.5 275.377 613.066C275.624 612.633 275.98 612.271 276.409 612.017L345.967 571.288C346.403 571.029 346.901 570.891 347.408 570.886C347.915 570.882 348.415 571.012 348.855 571.263C349.296 571.514 349.663 571.877 349.918 572.316C350.173 572.754 350.307 573.253 350.307 573.76V654.643C350.309 655.149 350.177 655.647 349.925 656.086C349.673 656.526 349.309 656.89 348.87 657.143L279.312 697.872C278.874 698.121 278.378 698.249 277.875 698.246Z" fill="#455A64"/>
<path d="M382.442 556.37V562.119C382.442 565.281 384.684 566.574 387.414 564.993L634.317 422.457C635.772 421.516 636.983 420.244 637.852 418.746C638.722 417.247 639.224 415.564 639.318 413.834V408.085C639.318 404.895 637.076 403.63 634.317 405.211L387.414 547.748C385.971 548.698 384.77 549.973 383.907 551.47C383.044 552.967 382.542 554.645 382.442 556.37V556.37Z" fill="#E0E0E0"/>
<path d="M382.442 591.724V597.473C382.442 600.663 384.684 601.928 387.414 600.347L634.317 457.811C635.772 456.87 636.983 455.598 637.852 454.099C638.722 452.601 639.224 450.918 639.318 449.188V443.439C639.318 440.277 637.076 438.984 634.317 440.565L387.414 583.13C385.97 584.073 384.768 585.342 383.904 586.835C383.04 588.328 382.54 590.002 382.442 591.724V591.724Z" fill="#E0E0E0"/>
<path d="M382.442 626.848V632.597C382.442 635.759 384.684 637.052 387.414 635.471L634.317 492.935C635.77 491.992 636.98 490.72 637.849 489.222C638.718 487.723 639.222 486.041 639.318 484.312V478.563C639.318 475.373 637.076 474.079 634.317 475.689L387.414 618.225C385.97 619.174 384.767 620.449 383.904 621.946C383.04 623.444 382.54 625.123 382.442 626.848V626.848Z" fill="#E0E0E0"/>
<path d="M313.803 655.85L297.621 640.271L304.606 625.526L313.803 634.379L352.118 553.266L359.102 559.992L313.803 655.85Z" fill="#2D82FF"/>
<path d="M277.875 762.803L347.433 722.045V802.957L277.875 843.686V762.803Z" fill="#FAFAFA"/>
<path d="M280.749 764.441V838.684L344.559 801.318V727.075L280.749 764.441ZM277.875 846.56C277.371 846.563 276.876 846.434 276.438 846.186C275.999 845.933 275.635 845.568 275.383 845.129C275.13 844.69 274.999 844.192 275.001 843.686V762.803C274.996 762.299 275.123 761.803 275.37 761.364C275.618 760.925 275.976 760.559 276.409 760.302L345.967 719.573C346.406 719.313 346.905 719.174 347.415 719.171C347.925 719.168 348.426 719.301 348.868 719.555C349.31 719.81 349.676 720.177 349.929 720.62C350.182 721.062 350.312 721.564 350.307 722.074V802.957C350.304 803.458 350.17 803.95 349.918 804.384C349.666 804.818 349.305 805.178 348.87 805.429L279.312 846.157C278.877 846.416 278.381 846.555 277.875 846.56Z" fill="#455A64"/>
<path d="M382.442 704.684V710.433C382.442 713.595 384.684 714.888 387.414 713.307L634.317 570.943C635.77 570.001 636.98 568.729 637.849 567.23C638.718 565.732 639.222 564.05 639.318 562.32V556.572C639.318 553.381 637.076 552.088 634.317 553.697L387.414 696.234C385.992 697.166 384.804 698.413 383.941 699.878C383.079 701.344 382.566 702.988 382.442 704.684Z" fill="#E0E0E0"/>
<path d="M382.442 740.01V745.758C382.442 748.92 384.684 750.213 387.414 748.632L634.317 606.096C635.772 605.155 636.983 603.883 637.852 602.385C638.722 600.886 639.224 599.203 639.318 597.473V591.724C639.318 588.534 637.076 587.269 634.317 588.85L387.414 731.387C385.97 732.336 384.767 733.61 383.904 735.107C383.04 736.605 382.54 738.284 382.442 740.01Z" fill="#E0E0E0"/>
<path d="M382.442 775.162V780.911C382.442 784.101 384.684 785.366 387.414 783.785L634.317 641.249C635.773 640.309 636.986 639.038 637.856 637.539C638.725 636.04 639.226 634.356 639.318 632.626V626.733C639.318 623.572 637.076 622.278 634.317 623.859L387.414 766.424C385.951 767.381 384.737 768.673 383.872 770.193C383.008 771.712 382.517 773.416 382.442 775.162V775.162Z" fill="#E0E0E0"/>
<path d="M277.875 911.088L347.433 870.359V951.271L277.875 991.999V911.088Z" fill="#FAFAFA"/>
<path d="M280.749 912.755V986.969L344.559 949.604V875.389L280.749 912.755ZM277.875 994.874C277.112 994.874 276.381 994.571 275.842 994.032C275.303 993.493 275 992.762 275 991.999V911.088C275.001 910.589 275.13 910.099 275.377 909.665C275.624 909.232 275.98 908.87 276.409 908.616L345.967 867.887C346.404 867.635 346.9 867.502 347.404 867.502C347.909 867.502 348.404 867.635 348.841 867.887C349.28 868.14 349.644 868.505 349.896 868.944C350.149 869.383 350.28 869.881 350.278 870.388V951.299C350.275 951.801 350.141 952.293 349.889 952.727C349.637 953.16 349.276 953.52 348.841 953.771L279.283 994.5C278.854 994.744 278.369 994.872 277.875 994.874V994.874Z" fill="#455A64"/>
<path d="M382.442 852.998V858.747C382.442 861.937 384.684 863.202 387.414 861.621L634.317 719.085C635.772 718.144 636.983 716.872 637.852 715.373C638.722 713.875 639.224 712.192 639.318 710.462V704.713C639.318 701.551 637.076 700.258 634.317 701.839L387.414 844.404C385.97 845.347 384.768 846.616 383.904 848.109C383.04 849.602 382.54 851.276 382.442 852.998V852.998Z" fill="#E0E0E0"/>
<path d="M382.442 888.323V894.072C382.442 897.263 384.684 898.556 387.414 896.946L634.317 754.438C635.767 753.493 636.975 752.22 637.843 750.722C638.712 749.224 639.217 747.544 639.318 745.816V739.923C639.318 736.762 637.076 735.468 634.317 737.049L387.414 879.614C385.955 880.568 384.743 881.856 383.879 883.37C383.014 884.884 382.522 886.582 382.442 888.323V888.323Z" fill="#E0E0E0"/>
<path d="M382.442 923.447V929.196C382.442 932.358 384.684 933.651 387.414 932.07L634.317 789.534C635.772 788.593 636.983 787.321 637.852 785.822C638.722 784.324 639.224 782.641 639.318 780.911V775.162C639.318 771.972 637.076 770.707 634.317 772.288L387.414 914.824C385.971 915.775 384.77 917.05 383.907 918.547C383.044 920.044 382.542 921.722 382.442 923.447V923.447Z" fill="#E0E0E0"/>
<path d="M1034.52 431.356C1037.28 414.355 1025.73 398.336 1008.73 395.576C991.729 392.816 975.71 404.361 972.95 421.362C970.191 438.363 981.736 454.383 998.737 457.142C1015.74 459.902 1031.76 448.357 1034.52 431.356Z" fill="#263238"/>
<path d="M966.557 523.661L922.063 575.398L862.307 549.53L861.157 581.894C861.157 581.894 910.02 604.745 917.579 606.297C925.139 607.849 932.382 609.516 938.935 604.486C946.581 598.738 974.031 566.948 974.031 566.948L966.557 523.661Z" fill="#FFA8A7"/>
<path d="M1006.94 497.131C989.236 495.981 975.324 509.433 964.919 521.505C954.514 533.577 941.378 552.548 941.378 552.548C941.378 552.548 948.535 573.444 967.391 579.767L999.899 541.165L1006.94 497.131Z" fill="#E0E0E0"/>
<path d="M1078.34 953.829H1056.38V991.425H1078.34V953.829Z" fill="#FFA8A7"/>
<path d="M1002.2 965.125L980.239 965.872L979.147 926.092L1001.08 925.344L1002.2 965.125Z" fill="#FFA8A7"/>
<path d="M1076.87 655.821C1076.87 676.804 1079.6 803.876 1079.6 803.876C1080.09 809.913 1085.75 821.122 1084.55 844.117C1082.88 875.734 1080.15 957.45 1080.15 957.45C1080.15 957.45 1069.86 967.654 1055.32 957.45C1055.32 957.45 1035.43 844.232 1031.52 813.046C1028.07 785.797 1022.23 711.841 1022.23 711.841L1010.07 814.511C1010.07 814.511 1013.64 834.976 1014.44 849.405C1015.25 863.834 1002.54 937.187 1002.54 937.187C998.983 939.412 994.901 940.665 990.706 940.821C986.51 940.977 982.346 940.031 978.63 938.078C978.63 938.078 969.173 826.296 966.903 813.247C964.632 800.197 974.175 655.735 974.175 655.735L1076.87 655.821Z" fill="#37474F"/>
<path d="M1055.78 504.144C1060.46 504.962 1064.79 507.148 1068.23 510.428C1071.67 513.707 1074.05 517.932 1075.09 522.569C1076.28 528.045 1076.88 533.635 1076.87 539.24V655.821C1061.5 672.578 1007.89 680.396 974.174 655.821C974.174 655.821 974.835 552.864 977.365 535.934C981.734 506.559 995.789 496.068 1009.93 497.16L1043.7 501.96L1055.78 504.144Z" fill="#F0F0F0"/>
<path d="M1057.56 448.498C1057.56 448.498 1052.5 472.211 1050.49 476.12C1049.14 478.523 1046.91 480.314 1044.28 481.121L1044.62 464.45L1057.56 448.498Z" fill="#263238"/>
<path d="M1051.21 414.495C1052.97 414.282 1054.76 414.478 1056.44 415.066C1058.12 415.654 1059.64 416.619 1060.89 417.887C1065.06 422.141 1062.73 435.449 1057.56 448.498L1048.04 449.59L1051.21 414.495Z" fill="#263238"/>
<path d="M1045.2 449.59C1047.1 450.74 1049.83 447.061 1052.18 444.618C1054.54 442.174 1062.21 438.869 1066.04 446.86C1069.86 454.85 1062.65 465.945 1056.61 467.842C1046.18 471.119 1044.62 464.45 1044.62 464.45L1043.7 501.96C1041.4 507.002 1037.89 511.395 1033.48 514.746C1029.06 518.097 1023.88 520.301 1018.41 521.16C999.928 523.69 1003.72 508.456 1009.79 501.04V489.543C1005.14 490.287 1000.43 490.528 995.732 490.261C988.057 489.083 983.229 483.018 980.929 474.74C977.192 461.403 975.755 450.654 978.917 424.44C982.395 395.697 1015.82 395.41 1033.84 406.763C1051.87 418.117 1045.2 449.59 1045.2 449.59Z" fill="#FFA8A7"/>
<path d="M1045.2 452.809C1046.15 452.809 1049.8 446.773 1052.18 444.618C1055.46 441.6 1051.21 414.495 1051.21 414.495C1052.08 412.151 1052.24 409.603 1051.68 407.166C1051.12 404.729 1049.85 402.51 1048.04 400.784C1043.53 395.812 1036 395.266 1023.12 393.254C1016.4 392.19 1006.17 390.38 999.411 389.029C991.363 387.534 984.694 385.953 979.032 390.897C976.813 392.833 975.243 395.405 974.533 398.263C973.824 401.121 974.009 404.129 975.065 406.878C975.656 408.127 976.431 409.28 977.365 410.298C978.893 412.116 980.877 413.495 983.114 414.294C983.114 414.294 986.62 417.398 998.836 418.893C1010.11 419.734 1021.44 419.513 1032.67 418.231C1036.2 417.772 1036.95 421.106 1038.87 430.562C1040.57 438.725 1041.98 452.752 1045.2 452.809Z" fill="#263238"/>
<path d="M1051.21 416.593L1062.7 410.413C1062.33 409.654 1061.81 408.977 1061.17 408.42C1060.54 407.864 1059.8 407.439 1058.99 407.172C1058.19 406.905 1057.34 406.799 1056.5 406.862C1055.66 406.925 1054.83 407.155 1054.08 407.539C1052.53 408.393 1051.37 409.808 1050.84 411.493C1050.3 413.177 1050.43 415.003 1051.21 416.593V416.593Z" fill="#263238"/>
<path d="M1009.96 489.6C1009.96 489.6 1027.06 486.151 1032.95 482.961C1036.47 481.126 1039.35 478.283 1041.23 474.798C1040.32 478.292 1038.72 481.567 1036.52 484.427C1032.15 490.031 1009.87 494.142 1009.87 494.142L1009.96 489.6Z" fill="#F28F8F"/>
<path d="M1014.07 445.307C1014.1 445.977 1014.32 446.624 1014.71 447.167C1015.11 447.71 1015.65 448.126 1016.28 448.363C1016.9 448.6 1017.59 448.648 1018.24 448.5C1018.89 448.352 1019.49 448.016 1019.95 447.532C1020.42 447.048 1020.73 446.439 1020.85 445.78C1020.97 445.121 1020.9 444.44 1020.63 443.824C1020.37 443.207 1019.93 442.681 1019.37 442.311C1018.82 441.941 1018.16 441.744 1017.49 441.743C1017.03 441.751 1016.58 441.849 1016.16 442.033C1015.74 442.216 1015.35 442.481 1015.04 442.813C1014.72 443.144 1014.47 443.535 1014.3 443.963C1014.14 444.391 1014.06 444.848 1014.07 445.307V445.307Z" fill="#263238"/>
<path d="M1017.83 432.373L1025.16 436.426C1025.67 435.432 1025.77 434.283 1025.46 433.215C1025.14 432.146 1024.43 431.239 1023.47 430.677C1022.99 430.412 1022.46 430.245 1021.92 430.187C1021.37 430.129 1020.82 430.18 1020.29 430.338C1019.77 430.496 1019.28 430.758 1018.86 431.107C1018.44 431.457 1018.09 431.887 1017.83 432.373V432.373Z" fill="#263238"/>
<path d="M1011.51 468.992L1003.66 471.866C1003.84 472.391 1004.11 472.876 1004.47 473.293C1004.83 473.71 1005.28 474.051 1005.77 474.295C1006.27 474.538 1006.81 474.68 1007.36 474.712C1007.91 474.745 1008.46 474.666 1008.98 474.482C1010.02 474.052 1010.85 473.249 1011.32 472.231C1011.79 471.214 1011.86 470.057 1011.51 468.992V468.992Z" fill="#F28F8F"/>
<path d="M983.487 435.219L990.184 430.074C989.87 429.631 989.471 429.256 989.01 428.97C988.548 428.685 988.034 428.495 987.498 428.412C986.962 428.329 986.415 428.354 985.889 428.487C985.363 428.619 984.869 428.856 984.436 429.183C983.538 429.878 982.94 430.891 982.763 432.012C982.587 433.134 982.846 434.281 983.487 435.219V435.219Z" fill="#263238"/>
<path d="M985.557 444.474C985.585 445.144 985.809 445.79 986.202 446.333C986.594 446.877 987.138 447.293 987.765 447.53C988.392 447.767 989.074 447.814 989.728 447.666C990.382 447.519 990.978 447.182 991.442 446.699C991.906 446.215 992.218 445.606 992.339 444.946C992.459 444.287 992.384 443.607 992.121 442.99C991.859 442.374 991.421 441.848 990.862 441.478C990.303 441.108 989.647 440.91 988.977 440.91C988.518 440.917 988.065 441.016 987.644 441.199C987.223 441.383 986.842 441.648 986.524 441.979C986.206 442.31 985.957 442.702 985.791 443.13C985.625 443.558 985.545 444.015 985.557 444.474Z" fill="#263238"/>
<path d="M1003 441.082L1001.88 461.72L991.133 458.041L1003 441.082Z" fill="#F28F8F"/>
<path d="M1056.38 980.588V977.427C1054.25 978.347 1049.39 996.972 1040.66 1004.93C1033.73 1011.23 1024.3 1018.53 1021.89 1025.57C1019.47 1032.61 1035.05 1037.07 1041.52 1035.8C1049.05 1034.48 1062.07 1029.19 1065.35 1024.31C1068.62 1019.42 1070.15 1012.15 1072.79 1008.56C1075.44 1004.96 1081.59 1000.94 1083.02 996.771C1083.83 994.5 1082.88 989.47 1081.76 985.274C1080.64 981.077 1079.66 977.139 1078.34 977.484C1078.34 977.973 1078.34 979.899 1078.34 979.899C1075.2 982.341 1071.33 983.649 1067.36 983.607C1064.14 983.664 1056.35 983.032 1056.38 980.588Z" fill="#263238"/>
<path d="M980.009 958.974C978.859 958.974 977.94 960.641 975.439 963.343C971.675 967.144 967.304 970.292 962.505 972.655C954.284 976.766 938.303 983.089 931.06 986.366C926.547 988.378 926.748 993.839 931.433 996.943C936.118 1000.05 947.386 1002.29 960.924 999.271C968.311 997.633 977.911 990.821 983.918 991.166C989.925 991.511 1001.39 991.453 1005.88 988.292C1010.36 985.13 1008.58 978.576 1007.29 972.914C1005.91 966.706 1003.92 957.22 1001.88 957.652V959.606C999.238 963.601 985.815 965.355 980.009 962.279V958.974Z" fill="#263238"/>
<path d="M1022.23 711.928C1010.88 708.385 1000.44 702.4 991.65 694.394C991.65 694.394 997.571 705.432 1015.1 715.722L1010.07 814.598L1022.23 711.928Z" fill="#263238"/>
<path d="M928.99 864.122L892.027 971.994C891.792 972.681 891.349 973.277 890.759 973.699C890.169 974.121 889.461 974.348 888.736 974.348C888.01 974.348 887.303 974.121 886.713 973.699C886.123 973.277 885.679 972.681 885.445 971.994L848.97 863.26L928.99 864.122Z" fill="#FFA8A7"/>
<path d="M885.445 971.994C885.68 972.681 886.123 973.277 886.713 973.699C887.303 974.121 888.011 974.348 888.736 974.348C889.462 974.348 890.169 974.121 890.759 973.699C891.349 973.277 891.793 972.681 892.027 971.994L899.242 950.926C896.132 952.596 892.621 953.376 889.096 953.178C885.571 952.98 882.169 951.813 879.265 949.805L877.656 948.713L885.445 971.994Z" fill="#263238"/>
<path d="M850.378 382.274V392.736V405.47L849.085 863.173C857.535 872.831 870.067 877.746 882.772 879.039C902.116 881.051 921.977 874.699 929.048 864.064L930.341 406.619V382.274C929.393 398.14 849.66 398.083 850.378 382.274Z" fill="#2D82FF"/>
<path d="M850.12 422.428V445.997C849.89 452.838 864.491 457.265 881.249 458.788C903.553 460.915 929.824 454.879 930.112 445.825V428.435V422.227C929.796 431.281 903.524 437.346 881.249 435.219C865.153 433.724 851.068 429.47 850.264 423.175C850.163 422.939 850.114 422.685 850.12 422.428Z" fill="#EBEBEB"/>
<path d="M850.177 428.32C849.603 444.186 929.566 443.985 930.14 428.119V404.521C929.566 420.387 849.66 420.588 850.177 404.722V428.32Z" fill="#2D82FF"/>
<path d="M850.378 382.274V405.556C849.689 421.135 926.864 421.594 930.341 406.706C930.436 406.418 930.484 406.117 930.485 405.815V382.36C929.393 398.14 849.66 398.083 850.378 382.274Z" fill="#EBEBEB"/>
<path opacity="0.1" d="M930.226 406.706V382.36C929.795 389.488 913.469 394.806 895.361 395.438L894.24 879.499L892.084 972.023L928.99 864.122L930.226 406.706Z" fill="black"/>
<path d="M850.752 283.513L850.378 382.36C850.062 389.115 864.434 393.57 881.104 395.18C903.409 397.364 929.795 391.472 930.312 382.446L930.657 283.283C930.657 263.565 890.647 258.593 866.762 266.813C857.823 269.659 851.47 275.149 850.752 283.513Z" fill="#F28F8F"/>
<path d="M1110.3 688.617C1109.6 698.586 1108.28 708.502 1106.36 718.309C1099.78 743.66 1091.36 751.277 1080.12 752.024C1062.21 753.203 1062.1 746.505 1070.15 734.951C1073.68 729.914 1076.37 724.344 1078.14 718.452C1075.5 720.649 1072.61 722.512 1069.52 724C1068.14 724.721 1066.55 724.897 1065.05 724.492C1063.55 724.087 1062.26 723.131 1061.44 721.815C1060.86 720.608 1063.97 719.401 1067.42 715.204C1071.79 709.858 1074.03 705.604 1080.06 701.178C1082.07 699.193 1083.34 696.59 1083.69 693.791C1084.61 690.169 1085.24 632.654 1081.99 620.755L1066.7 565.424C1054.17 556.802 1040.83 514.262 1059.89 505.064C1077.76 507.076 1090.81 530.473 1110.33 602.79C1113.64 615.667 1112.31 668.957 1110.3 688.617Z" fill="#FFA8A7"/>
<path d="M1055.78 504.144C1053.34 506.307 1051.39 508.963 1050.06 511.936C1048.72 514.909 1048.04 518.132 1048.04 521.39C1047.53 533.434 1053.19 550.794 1056.67 561.63C1060.14 572.467 1067.19 592.184 1067.19 592.184C1067.19 592.184 1096.65 588.793 1103.35 571.518C1103.35 571.518 1089.55 526.88 1076.27 512.365C1073.72 509.51 1070.54 507.284 1066.98 505.858C1063.43 504.432 1059.59 503.846 1055.78 504.144Z" fill="#E0E0E0"/>
<path d="M867.222 514.952C867.222 514.952 874.379 509.203 888.032 511.474C894.643 512.566 892.113 537.572 870.786 544.528C856.961 549.07 854.144 546.742 849.689 558.095C849.689 558.095 841.353 556.37 843.365 543.723C845.583 530.627 851.417 518.412 860.209 508.456C866.302 501.27 866.733 495.234 869.722 497.275C872.712 499.316 871.016 505.524 871.016 505.524L867.222 514.952Z" fill="#FFA8A7"/>
</svg>
